{
    "asset" : {
        "generator" : "Khronos glTF Blender I/O v1.4.40",
        "version" : "2.0"
    },
    "scene" : 0,
    "scenes" : [
        {
            "name" : "Scene",
            "nodes" : [
                0
            ]
        }
    ],
    "nodes" : [
        {
            "mesh" : 0,
            "name" : "SB"
        }
    ],
    "animations" : [
        {
            "channels" : [
                {
                    "sampler" : 0,
                    "target" : {
                        "node" : 0,
                        "path" : "scale"
                    }
                }
            ],
            "name" : "SBAction",
            "samplers" : [
                {
                    "input" : 3,
                    "interpolation" : "STEP",
                    "output" : 4
                }
            ]
        }
    ],
    "meshes" : [
        {
            "name" : "SB.001",
            "primitives" : [
                {
                    "attributes" : {
                        "POSITION" : 0,
                        "NORMAL" : 1
                    },
                    "indices" : 2
                }
            ]
        }
    ],
    "accessors" : [
        {
            "bufferView" : 0,
            "componentType" : 5126,
            "count" : 35612,
            "max" : [
                -1499.9439697265625,
                812.7999877929688,
                -70.69519805908203
            ],
            "min" : [
                -6555.935546875,
                0,
                -883.4951782226562
            ],
            "type" : "VEC3"
        },
        {
            "bufferView" : 1,
            "componentType" : 5126,
            "count" : 35612,
            "type" : "VEC3"
        },
        {
            "bufferView" : 2,
            "componentType" : 5123,
            "count" : 36690,
            "type" : "SCALAR"
        },
        {
            "bufferView" : 3,
            "componentType" : 5126,
            "count" : 1,
            "max" : [
                0.041666666666666664
            ],
            "min" : [
                0.041666666666666664
            ],
            "type" : "SCALAR"
        },
        {
            "bufferView" : 4,
            "componentType" : 5126,
            "count" : 1,
            "type" : "VEC3"
        }
    ],
    "bufferViews" : [
        {
            "buffer" : 0,
            "byteLength" : 427344,
            "byteOffset" : 0
        },
        {
            "buffer" : 0,
            "byteLength" : 427344,
            "byteOffset" : 427344
        },
        {
            "buffer" : 0,
            "byteLength" : 73380,
            "byteOffset" : 854688
        },
        {
            "buffer" : 0,
            "byteLength" : 4,
            "byteOffset" : 928068
        },
        {
            "buffer" : 0,
            "byteLength" : 12,
            "byteOffset" : 928072
        }
    ],
    "buffers" : [
        {
            "byteLength" : 928084,
            "uri" : "data:application/octet-stream;base64,"
        }
    ]
}
